<?xml version="1.0" encoding="utf-8"?>
<!-- Generator: Adobe Illustrator 19.0.0, SVG Export Plug-In . SVG Version: 6.00 Build 0)  -->
<svg version="1.1" id="Calque_1" xmlns="http://www.w3.org/2000/svg" xmlns:xlink="http://www.w3.org/1999/xlink" x="0px" y="0px"
	 viewBox="0 0 800 800" style="enable-background:new 0 0 800 800;" xml:space="preserve">
<style type="text/css">
	.st0{fill:#ffffff;}
</style>
<polygon class="st0" points="584.7,309.3 498.3,159.4 421.1,159.4 421.1,182.3 421.1,205.3 471.8,205.3 531.7,309.3 421.1,309.3 
	421.1,355.2 532.2,355.2 471.6,460.1 421.1,460 421.1,483 421.1,505.9 498.1,506 585.3,355.2 598.2,332.8 "/>
<polygon class="st0" points="298.2,159.3 211.5,309.3 198.1,332.5 211.2,355.2 298,505.8 375.2,505.9 375.2,483 375.2,460 
	324.5,460 264.1,355.2 375.2,355.2 375.2,309.3 264.5,309.3 324.7,205.2 375.2,205.2 375.2,182.3 375.2,159.3 "/>
<g>
	<path class="st0" d="M197.6,562.2c3,4.2,4.5,9.3,4.5,15.1c0,6.1-1.5,10.9-4.6,14.6c-1.7,2.1-4.2,3.9-7.6,5.6
		c5.1,1.8,8.9,4.8,11.4,8.7c2.6,4,3.9,8.8,3.9,14.5c0,5.9-1.5,11.1-4.4,15.8c-1.9,3.1-4.2,5.7-7,7.8c-3.2,2.4-6.9,4.1-11.2,5
		c-4.3,0.9-9,1.3-14,1.3h-44.7v-99.1H172C184,551.8,192.6,555.4,197.6,562.2z M143.8,568.9v21.9h24.1c4.3,0,7.8-0.8,10.5-2.5
		c2.7-1.6,4-4.5,4-8.7c0-4.6-1.8-7.7-5.3-9.1c-3.1-1-7-1.5-11.7-1.5H143.8z M143.8,607.1v26.4h24.1c4.3,0,7.6-0.6,10-1.7
		c4.3-2.2,6.5-6.3,6.5-12.4c0-5.2-2.1-8.7-6.3-10.6c-2.3-1.1-5.6-1.6-9.9-1.7H143.8z"/>
	<path class="st0" d="M296.5,569.2H244v21h48.1v17.2H244v25.5h54.9v17.8h-75.1v-99.1h72.7V569.2z"/>
	<path class="st0" d="M388.3,569.2h-52.4v21H384v17.2h-48.1v25.5h54.9v17.8h-75.1v-99.1h72.7V569.2z"/>
	<path class="st0" d="M407.2,551.7h20.4v40.8l38.3-40.8h26.8l-40.7,40.8l42.8,58.3h-26.6l-30.5-43.3l-10,10.1v33.1h-20.4V551.7z"/>
	<path class="st0" d="M579.6,569.2h-52.4v21h48.1v17.2h-48.1v25.5H582v17.8h-75.1v-99.1h72.7V569.2z"/>
	<path class="st0" d="M671.4,569.2H619v21h48.1v17.2H619v25.5h54.9v17.8h-75.1v-99.1h72.7V569.2z"/>
</g>
</svg>