<?xml version="1.0" encoding="utf-8"?>
<!-- Generator: Adobe Illustrator 19.0.0, SVG Export Plug-In . SVG Version: 6.00 Build 0)  -->
<svg version="1.1" id="Calque_1" xmlns="http://www.w3.org/2000/svg" xmlns:xlink="http://www.w3.org/1999/xlink" x="0px" y="0px"
	 viewBox="-865.5 -78.7 2761 1250.5" style="enable-background:new -865.5 -78.7 2761 1250.5;" xml:space="preserve">
<style type="text/css">
	.st0{fill:#FFFFFF;}
</style>
<polygon class="st0" points="699.7,71.3 613.3,-78.6 536.1,-78.6 536.1,-55.7 536.1,-32.7 586.8,-32.7 646.7,71.3 536.1,71.3 
	536.1,117.2 647.2,117.2 586.6,222.1 536.1,222 536.1,245 536.1,267.9 613.1,268 700.3,117.2 713.2,94.8 "/>
<polygon class="st0" points="413.2,-78.7 326.5,71.3 313.1,94.5 326.2,117.2 413,267.8 490.2,267.9 490.2,245 490.2,222 439.5,222 
	379.1,117.2 490.2,117.2 490.2,71.3 379.5,71.3 439.7,-32.8 490.2,-32.8 490.2,-55.7 490.2,-78.7 "/>
<g>
	<path class="st0" d="M312.6,324.2c3,4.2,4.5,9.3,4.5,15.1c0,6.1-1.5,10.9-4.6,14.6c-1.7,2.1-4.2,3.9-7.6,5.6
		c5.1,1.8,8.9,4.8,11.4,8.7c2.6,4,3.9,8.8,3.9,14.5c0,5.9-1.5,11.1-4.4,15.8c-1.9,3.1-4.2,5.7-7,7.8c-3.2,2.4-6.9,4.1-11.2,5
		c-4.3,0.9-9,1.3-14,1.3h-44.7v-99.1H287C299,313.8,307.6,317.4,312.6,324.2z M258.8,330.9v21.9h24.1c4.3,0,7.8-0.8,10.5-2.5
		c2.7-1.6,4-4.5,4-8.7c0-4.6-1.8-7.7-5.3-9.1c-3.1-1-7-1.5-11.7-1.5h-21.6V330.9z M258.8,369.1v26.4h24.1c4.3,0,7.6-0.6,10-1.7
		c4.3-2.2,6.5-6.3,6.5-12.4c0-5.2-2.1-8.7-6.3-10.6c-2.3-1.1-5.6-1.6-9.9-1.7H258.8z"/>
	<path class="st0" d="M411.5,331.2H359v21h48.1v17.2H359v25.5h54.9v17.8h-75.1v-99.1h72.7V331.2z"/>
	<path class="st0" d="M503.3,331.2h-52.4v21H499v17.2h-48.1v25.5h54.9v17.8h-75.1v-99.1h72.7L503.3,331.2L503.3,331.2z"/>
	<path class="st0" d="M522.2,313.7h20.4v40.8l38.3-40.8h26.8L567,354.5l42.8,58.3h-26.6l-30.5-43.3l-10,10.1v33.1h-20.4L522.2,313.7
		L522.2,313.7z"/>
	<path class="st0" d="M694.6,331.2h-52.4v21h48.1v17.2h-48.1v25.5H697v17.8h-75.1v-99.1h72.7V331.2z"/>
	<path class="st0" d="M786.4,331.2H734v21h48.1v17.2H734v25.5h54.9v17.8h-75.1v-99.1h72.7v17.6H786.4z"/>
</g>
<g>
	<path class="st0" d="M-163.6,1021.3l-102.6-404.4h55.2l48,204.6c12,50.4,22.8,100.8,30,139.8h1.2c6.6-40.2,19.2-88.2,33-140.4
		l54-204H9.8L59,822.1c11.4,48,22.2,96,28.2,138.6h1.2c8.4-44.4,19.8-89.4,32.4-139.8l53.4-204h53.4L113,1021.3H58.4l-51-210.6
		c-12.6-51.6-21-91.2-26.4-132h-1.2c-7.2,40.2-16.2,79.8-31.2,132l-57.6,210.6H-163.6z"/>
	<path class="st0" d="M273.2,595.3H326v181.2h1.2c8.4-15,21.6-28.2,37.8-37.2c15.6-9,34.2-15,54-15c39,0,101.4,24,101.4,124.2v172.8
		h-52.8V854.5c0-46.8-17.4-86.4-67.2-86.4c-34.2,0-61.2,24-70.8,52.8c-3,7.2-3.6,15-3.6,25.2v175.2h-52.8V595.3z"/>
	<path class="st0" d="M635.6,885.7c1.2,71.4,46.8,100.8,99.6,100.8c37.8,0,60.6-6.6,80.4-15l9,37.8c-18.6,8.4-50.4,18-96.6,18
		c-89.4,0-142.8-58.8-142.8-146.4s51.6-156.6,136.2-156.6c94.8,0,120,83.4,120,136.8c0,10.8-1.2,19.2-1.8,24.6H635.6z M790.4,847.9
		c0.6-33.6-13.8-85.8-73.2-85.8c-53.4,0-76.8,49.2-81,85.8H790.4z"/>
	<path class="st0" d="M936.2,885.7c1.2,71.4,46.8,100.8,99.6,100.8c37.8,0,60.6-6.6,80.4-15l9,37.8c-18.6,8.4-50.4,18-96.6,18
		c-89.4,0-142.8-58.8-142.8-146.4s51.6-156.6,136.2-156.6c94.8,0,120,83.4,120,136.8c0,10.8-1.2,19.2-1.8,24.6H936.2z M1091,847.9
		c0.6-33.6-13.8-85.8-73.2-85.8c-53.4,0-76.8,49.2-81,85.8H1091z"/>
	<path class="st0" d="M1207.4,595.3h52.8v426h-52.8V595.3z"/>
</g>
</svg>
